<svg xmlns="http://www.w3.org/2000/svg" xmlns:xlink="http://www.w3.org/1999/xlink" version="1.1" id="Capa_1" x="0px" y="0px" viewBox="0 0 488.2 488.2" style="enable-background:new 0 0 488.2 488.2;" xml:space="preserve" width="512px" height="512px">
<g>
	<path d="M468.8,149.05c-12.3-29.1-29.9-55.1-52.3-77.6c-22.4-22.4-48.5-40-77.6-52.3c-30-12.6-62-19.1-94.9-19.1s-64.9,6.5-95,19.2   c-29,12.3-55.1,29.9-77.5,52.3s-40,48.5-52.3,77.6c-12.7,30-19.2,62-19.2,94.9s6.5,64.9,19.2,95c12.3,29.1,29.9,55.2,52.3,77.6   c22.4,22.4,48.5,40,77.6,52.3c30.1,12.7,62.1,19.2,95,19.2s64.9-6.5,95-19.2c29.1-12.3,55.1-29.9,77.6-52.3   c22.4-22.4,40-48.5,52.3-77.6c12.7-30.1,19.2-62.1,19.2-95S481.5,179.15,468.8,149.05z M398.7,373.35c-1.9-5-5.1-9.5-9.3-12.9   c-39.9-32.8-83-54.6-91.8-58.9c-1-0.5-1.6-1.5-1.6-2.6v-62.2c7.8-5.2,13-14.1,13-24.2v-64.5c0-32.1-26-58.1-58.1-58.1H244h-6.9   c-32.1,0-58.1,26-58.1,58.1v64.5c0,10.1,5.2,19,13,24.2v62.2c0,1.1-0.6,2.1-1.6,2.6c-8.8,4.3-51.8,26.1-91.8,58.9   c-4.2,3.5-7.4,8-9.3,12.9c-29.3-35-47-80.1-47-129.3c0-111.2,90.5-201.7,201.7-201.7s201.7,90.5,201.7,201.7   C445.7,293.25,428.1,338.35,398.7,373.35z" fill="#FFFFFF"/>
</g>
<g>
</g>
<g>
</g>
<g>
</g>
<g>
</g>
<g>
</g>
<g>
</g>
<g>
</g>
<g>
</g>
<g>
</g>
<g>
</g>
<g>
</g>
<g>
</g>
<g>
</g>
<g>
</g>
<g>
</g>
</svg>
