<?xml version="1.0" encoding="iso-8859-1"?>
<!-- Generator: Adobe Illustrator 19.0.0, SVG Export Plug-In . SVG Version: 6.00 Build 0)  -->
<svg version="1.1" id="Layer_1" xmlns="http://www.w3.org/2000/svg" xmlns:xlink="http://www.w3.org/1999/xlink" x="0px" y="0px"
	 viewBox="0 0 512 512" style="enable-background:new 0 0 512 512;" xml:space="preserve">
<path style="fill:#C7CFE2;" d="M441.379,512H70.621c-9.751,0-17.655-7.904-17.655-17.655V17.655C52.966,7.904,60.87,0,70.621,0
	h370.759c9.751,0,17.655,7.904,17.655,17.655v476.69C459.034,504.095,451.129,512,441.379,512z"/>
<path style="fill:#707487;" d="M459.034,176.552H52.966V17.655C52.966,7.904,60.87,0,70.621,0h370.759
	c9.751,0,17.655,7.904,17.655,17.655V176.552z"/>
<g>
	<path style="fill:#5B5D6E;" d="M132.414,264.828h-35.31c-4.875,0-8.828-3.953-8.828-8.828v-35.31c0-4.875,3.953-8.828,8.828-8.828
		h35.31c4.875,0,8.828,3.953,8.828,8.828V256C141.241,260.875,137.289,264.828,132.414,264.828z"/>
	<path style="fill:#5B5D6E;" d="M132.414,406.069h-35.31c-4.875,0-8.828-3.953-8.828-8.828v-35.31c0-4.875,3.953-8.828,8.828-8.828
		h35.31c4.875,0,8.828,3.953,8.828,8.828v35.31C141.241,402.116,137.289,406.069,132.414,406.069z"/>
	<path style="fill:#5B5D6E;" d="M132.414,335.448h-35.31c-4.875,0-8.828-3.953-8.828-8.828v-35.31c0-4.875,3.953-8.828,8.828-8.828
		h35.31c4.875,0,8.828,3.953,8.828,8.828v35.31C141.241,331.496,137.289,335.448,132.414,335.448z"/>
</g>
<path style="fill:#FF6464;" d="M132.414,476.69h-35.31c-4.875,0-8.828-3.953-8.828-8.828v-35.31c0-4.875,3.953-8.828,8.828-8.828
	h35.31c4.875,0,8.828,3.953,8.828,8.828v35.31C141.241,472.737,137.289,476.69,132.414,476.69z"/>
<g>
	<path style="fill:#8F96AC;" d="M203.034,264.828h-35.31c-4.875,0-8.828-3.953-8.828-8.828v-35.31c0-4.875,3.953-8.828,8.828-8.828
		h35.31c4.875,0,8.828,3.953,8.828,8.828V256C211.862,260.875,207.91,264.828,203.034,264.828z"/>
	<path style="fill:#8F96AC;" d="M203.034,406.069h-35.31c-4.875,0-8.828-3.953-8.828-8.828v-35.31c0-4.875,3.953-8.828,8.828-8.828
		h35.31c4.875,0,8.828,3.953,8.828,8.828v35.31C211.862,402.116,207.91,406.069,203.034,406.069z"/>
	<path style="fill:#8F96AC;" d="M203.034,335.448h-35.31c-4.875,0-8.828-3.953-8.828-8.828v-35.31c0-4.875,3.953-8.828,8.828-8.828
		h35.31c4.875,0,8.828,3.953,8.828,8.828v35.31C211.862,331.496,207.91,335.448,203.034,335.448z"/>
	<path style="fill:#8F96AC;" d="M203.034,476.69h-35.31c-4.875,0-8.828-3.953-8.828-8.828v-35.31c0-4.875,3.953-8.828,8.828-8.828
		h35.31c4.875,0,8.828,3.953,8.828,8.828v35.31C211.862,472.737,207.91,476.69,203.034,476.69z"/>
	<path style="fill:#8F96AC;" d="M273.655,264.828h-35.31c-4.875,0-8.828-3.953-8.828-8.828v-35.31c0-4.875,3.953-8.828,8.828-8.828
		h35.31c4.875,0,8.828,3.953,8.828,8.828V256C282.483,260.875,278.53,264.828,273.655,264.828z"/>
	<path style="fill:#8F96AC;" d="M273.655,406.069h-35.31c-4.875,0-8.828-3.953-8.828-8.828v-35.31c0-4.875,3.953-8.828,8.828-8.828
		h35.31c4.875,0,8.828,3.953,8.828,8.828v35.31C282.483,402.116,278.53,406.069,273.655,406.069z"/>
	<path style="fill:#8F96AC;" d="M273.655,335.448h-35.31c-4.875,0-8.828-3.953-8.828-8.828v-35.31c0-4.875,3.953-8.828,8.828-8.828
		h35.31c4.875,0,8.828,3.953,8.828,8.828v35.31C282.483,331.496,278.53,335.448,273.655,335.448z"/>
	<path style="fill:#8F96AC;" d="M273.655,476.69h-35.31c-4.875,0-8.828-3.953-8.828-8.828v-35.31c0-4.875,3.953-8.828,8.828-8.828
		h35.31c4.875,0,8.828,3.953,8.828,8.828v35.31C282.483,472.737,278.53,476.69,273.655,476.69z"/>
	<path style="fill:#8F96AC;" d="M344.276,264.828h-35.31c-4.875,0-8.828-3.953-8.828-8.828v-35.31c0-4.875,3.953-8.828,8.828-8.828
		h35.31c4.875,0,8.828,3.953,8.828,8.828V256C353.103,260.875,349.151,264.828,344.276,264.828z"/>
	<path style="fill:#8F96AC;" d="M344.276,406.069h-35.31c-4.875,0-8.828-3.953-8.828-8.828v-35.31c0-4.875,3.953-8.828,8.828-8.828
		h35.31c4.875,0,8.828,3.953,8.828,8.828v35.31C353.103,402.116,349.151,406.069,344.276,406.069z"/>
	<path style="fill:#8F96AC;" d="M344.276,335.448h-35.31c-4.875,0-8.828-3.953-8.828-8.828v-35.31c0-4.875,3.953-8.828,8.828-8.828
		h35.31c4.875,0,8.828,3.953,8.828,8.828v35.31C353.103,331.496,349.151,335.448,344.276,335.448z"/>
</g>
<g>
	<path style="fill:#5B5D6E;" d="M344.276,476.69h-35.31c-4.875,0-8.828-3.953-8.828-8.828v-35.31c0-4.875,3.953-8.828,8.828-8.828
		h35.31c4.875,0,8.828,3.953,8.828,8.828v35.31C353.103,472.737,349.151,476.69,344.276,476.69z"/>
	<path style="fill:#5B5D6E;" d="M414.897,264.828h-35.31c-4.875,0-8.828-3.953-8.828-8.828v-35.31c0-4.875,3.953-8.828,8.828-8.828
		h35.31c4.875,0,8.828,3.953,8.828,8.828V256C423.724,260.875,419.772,264.828,414.897,264.828z"/>
	<path style="fill:#5B5D6E;" d="M414.897,335.448h-35.31c-4.875,0-8.828-3.953-8.828-8.828v-35.31c0-4.875,3.953-8.828,8.828-8.828
		h35.31c4.875,0,8.828,3.953,8.828,8.828v35.31C423.724,331.496,419.772,335.448,414.897,335.448z"/>
	<path style="fill:#5B5D6E;" d="M414.897,476.69h-35.31c-4.875,0-8.828-3.953-8.828-8.828V361.931c0-4.875,3.953-8.828,8.828-8.828
		h35.31c4.875,0,8.828,3.953,8.828,8.828v105.931C423.724,472.737,419.772,476.69,414.897,476.69z"/>
</g>
<path style="fill:#D7DEED;" d="M414.897,123.586H97.103c-4.875,0-8.828-3.953-8.828-8.828V44.138c0-4.875,3.953-8.828,8.828-8.828
	h317.793c4.875,0,8.828,3.953,8.828,8.828v70.621C423.724,119.634,419.772,123.586,414.897,123.586z"/>
<g>
	<path style="fill:#C7CFE2;" d="M132.414,105.931h-17.655c-4.879,0-8.828-3.948-8.828-8.828v-35.31c0-4.879,3.948-8.828,8.828-8.828
		h17.655c4.879,0,8.828,3.948,8.828,8.828v35.31C141.241,101.983,137.293,105.931,132.414,105.931z"/>
	<path style="fill:#C7CFE2;" d="M185.379,105.931h-17.655c-4.879,0-8.828-3.948-8.828-8.828v-35.31c0-4.879,3.948-8.828,8.828-8.828
		h17.655c4.879,0,8.828,3.948,8.828,8.828v35.31C194.207,101.983,190.259,105.931,185.379,105.931z"/>
	<path style="fill:#C7CFE2;" d="M238.345,105.931H220.69c-4.879,0-8.828-3.948-8.828-8.828v-35.31c0-4.879,3.948-8.828,8.828-8.828
		h17.655c4.879,0,8.828,3.948,8.828,8.828v35.31C247.172,101.983,243.224,105.931,238.345,105.931z"/>
	<path style="fill:#C7CFE2;" d="M291.31,105.931h-17.655c-4.879,0-8.828-3.948-8.828-8.828v-35.31c0-4.879,3.948-8.828,8.828-8.828
		h17.655c4.879,0,8.828,3.948,8.828,8.828v35.31C300.138,101.983,296.19,105.931,291.31,105.931z"/>
</g>
<g>
	<path style="fill:#8F96AC;" d="M344.276,105.931h-17.655c-4.879,0-8.828-3.948-8.828-8.828v-35.31c0-4.879,3.948-8.828,8.828-8.828
		h17.655c4.879,0,8.828,3.948,8.828,8.828v35.31C353.103,101.983,349.155,105.931,344.276,105.931z"/>
	<path style="fill:#8F96AC;" d="M397.241,105.931h-17.655c-4.879,0-8.828-3.948-8.828-8.828v-35.31c0-4.879,3.948-8.828,8.828-8.828
		h17.655c4.879,0,8.828,3.948,8.828,8.828v35.31C406.069,101.983,402.121,105.931,397.241,105.931z"/>
</g>
<rect x="52.966" y="150.069" style="fill:#5B5D6E;" width="406.069" height="26.483"/>
<g>
</g>
<g>
</g>
<g>
</g>
<g>
</g>
<g>
</g>
<g>
</g>
<g>
</g>
<g>
</g>
<g>
</g>
<g>
</g>
<g>
</g>
<g>
</g>
<g>
</g>
<g>
</g>
<g>
</g>
</svg>
