<?xml version="1.0" encoding="iso-8859-1"?>
<!-- Generator: Adobe Illustrator 19.0.0, SVG Export Plug-In . SVG Version: 6.00 Build 0)  -->
<svg version="1.1" id="Layer_1" xmlns="http://www.w3.org/2000/svg" xmlns:xlink="http://www.w3.org/1999/xlink" x="0px" y="0px"
	 viewBox="0 0 511.999 511.999" style="enable-background:new 0 0 511.999 511.999;" xml:space="preserve">
<path style="fill:#E6E6E6;" d="M455.617,10.846H56.367c-12.437,0-22.517,10.094-22.517,22.531v74.912h444.296V33.377
	C478.147,20.939,468.053,10.846,455.617,10.846z M148.16,55.922c-5.953,0-10.784-4.831-10.784-10.784s4.831-10.784,10.784-10.784
	c5.953,0,10.784,4.831,10.784,10.784S154.112,55.922,148.16,55.922z M366.656,55.922c-5.953,0-10.784-4.831-10.784-10.784
	s4.831-10.784,10.784-10.784s10.784,4.831,10.784,10.784S372.608,55.922,366.656,55.922z"/>
<path style="fill:#3A5BBC;" d="M511.505,113.523l-34.077,177.704l13.918,184.793c1.021,13.559-9.706,25.134-23.322,25.134H43.96
	c-13.602,0-24.343-11.575-23.322-25.134l13.933-184.793L0.494,113.523C-2.712,96.815,10.099,81.3,27.123,81.3h457.74
	C501.901,81.3,514.711,96.815,511.505,113.523z"/>
<path style="fill:#518EF8;" d="M468.024,501.153H43.96c-13.602,0-24.343-11.575-23.322-25.134l13.933-184.793h244.435h198.423
	l13.918,184.793C492.368,489.578,481.641,501.153,468.024,501.153z"/>
<g>
	<path style="fill:#FFFFFF;" d="M247.371,244.856c0-34.687-29.026-62.906-64.703-62.906s-64.703,28.219-64.703,62.906h21.568
		c0-22.794,19.351-41.338,43.136-41.338s43.136,18.544,43.136,41.338s-19.351,41.338-43.136,41.338h-20.13v21.568h20.13
		c23.785,0,43.136,18.544,43.136,41.338c0,22.794-19.351,41.338-43.136,41.338s-43.136-18.544-43.136-41.338h-21.568
		c0,34.687,29.026,62.906,64.703,62.906s64.703-28.219,64.703-62.906c0-21.663-11.322-40.802-28.513-52.122
		C236.05,285.659,247.371,266.519,247.371,244.856z"/>
	<polygon style="fill:#FFFFFF;" points="289.289,218.704 300.353,237.218 342.989,211.741 342.989,401.222 364.556,401.222 
		364.556,173.728 	"/>
</g>
<g>
</g>
<g>
</g>
<g>
</g>
<g>
</g>
<g>
</g>
<g>
</g>
<g>
</g>
<g>
</g>
<g>
</g>
<g>
</g>
<g>
</g>
<g>
</g>
<g>
</g>
<g>
</g>
<g>
</g>
</svg>
