<?xml version="1.0" encoding="iso-8859-1"?>
<!-- Generator: Adobe Illustrator 19.0.0, SVG Export Plug-In . SVG Version: 6.00 Build 0)  -->
<svg version="1.1" id="Layer_1" xmlns="http://www.w3.org/2000/svg" xmlns:xlink="http://www.w3.org/1999/xlink" x="0px" y="0px"
	 viewBox="0 0 512 512" style="enable-background:new 0 0 512 512;" xml:space="preserve">
<path style="fill:#CCCCCC;" d="M451.809,239.542v217.654l-68.402-12.661l-30.156-36.174l-127.06-141.254l107.876-76.649
	c54.037,71.326,55.741,53.938,55.741,53.938s26.692-39.85,60.936-5.607L451.809,239.542z"/>
<path style="fill:#518EF8;" d="M190.707,223.105l224.311,288.696c-1.306,0.128-2.626,0.199-3.96,0.199H44.336L190.707,223.105z"/>
<path style="fill:#28B446;" d="M334.068,190.458L0.447,471.248V101.389c0-22.512,18.254-40.752,40.752-40.752h243.289
	c-10.447,17.956,28.289,29.481,28.289,51.752C312.777,134.803,323.494,172.417,334.068,190.458z"/>
<path style="fill:#F2F2F2;" d="M451.809,457.196v14.052c0,21.164-16.139,38.566-36.791,40.553L227.313,326.567l45.436-46.046
	l104.867,103.476l5.791,5.72L451.809,457.196z"/>
<path style="fill:#FFD837;" d="M322.514,230.088l-49.765,50.432l-45.436,46.046L44.336,512h-3.137
	c-22.498,0-40.752-18.254-40.752-40.752l284.254-288.058c5.323,9.113,41.93-0.114,49.368,7.267l13.67,17.572
	C354.41,215.142,316.78,222.537,322.514,230.088z"/>
<path style="fill:#FFFFFF;" d="M106.904,227.775c-35.808,0-64.939-29.131-64.939-64.939s29.131-64.939,64.939-64.939
	c17.334,0,33.637,6.758,45.91,19.03l-15.057,15.054c-8.248-8.25-19.206-12.793-30.853-12.793c-24.068,0-43.647,19.58-43.647,43.647
	s19.58,43.647,43.647,43.647c20.396,0,37.571-14.062,42.334-33.002h-42.334v-21.291h64.939v10.646
	C171.842,198.644,142.712,227.775,106.904,227.775z"/>
<path style="fill:#F14336;" d="M284.488,60.638C305.566,24.386,344.842,0,389.809,0c67.238,0,121.744,54.506,121.744,121.744
	c0,16.863-3.435,32.916-9.624,47.522c-6.203,14.606-15.174,27.75-26.245,38.764c-9.226,9.808-17.501,20.17-24.939,30.759
	c-48.729,69.424-60.936,148.685-60.936,148.685s-13.257-86.06-67.295-157.386c-5.734-7.551-11.923-14.947-18.594-22.058h0.014
	c-7.438-7.381-13.91-15.727-19.233-24.84c-10.575-18.041-16.636-39.034-16.636-61.447C268.065,99.473,274.041,78.593,284.488,60.638
	z"/>
<path style="fill:#7E2D25;" d="M389.81,56.947c35.781,0,64.781,29.017,64.781,64.798s-29,64.781-64.781,64.781
	s-64.798-29-64.798-64.781S354.03,56.947,389.81,56.947z"/>
<g>
</g>
<g>
</g>
<g>
</g>
<g>
</g>
<g>
</g>
<g>
</g>
<g>
</g>
<g>
</g>
<g>
</g>
<g>
</g>
<g>
</g>
<g>
</g>
<g>
</g>
<g>
</g>
<g>
</g>
</svg>
