<?xml version="1.0" encoding="iso-8859-1"?>
<!-- Generator: Adobe Illustrator 19.0.0, SVG Export Plug-In . SVG Version: 6.00 Build 0)  -->
<svg version="1.1" id="Layer_1" xmlns="http://www.w3.org/2000/svg" xmlns:xlink="http://www.w3.org/1999/xlink" x="0px" y="0px"
	 viewBox="0 0 472 472" style="enable-background:new 0 0 472 472;" xml:space="preserve">
<path style="fill:#34495E;" d="M0,4v96h472c0-31.504,0-96,0-96H0z"/>
<path style="fill:#66CEDB;" d="M320,36l-48,64H0v368h472c0,0,0-247.232,0-368V36H320z"/>
<path style="fill:#E74C3C;" d="M48,76c-13.232,0-24-10.768-24-24s10.768-24,24-24s24,10.768,24,24S61.232,76,48,76z M48,44
	c-4.416,0-8,3.592-8,8s3.584,8,8,8s8-3.592,8-8S52.416,44,48,44z"/>
<path style="fill:#F6BF58;" d="M112,76c-13.232,0-24-10.768-24-24s10.768-24,24-24s24,10.768,24,24S125.232,76,112,76z M112,44
	c-4.416,0-8,3.592-8,8s3.584,8,8,8s8-3.592,8-8S116.416,44,112,44z"/>
<path style="fill:#66CEDB;" d="M176,76c-13.232,0-24-10.768-24-24s10.768-24,24-24s24,10.768,24,24S189.232,76,176,76z M176,44
	c-4.416,0-8,3.592-8,8s3.584,8,8,8s8-3.592,8-8S180.416,44,176,44z"/>
<g>
	<polygon style="fill:#00BFC8;" points="41.344,224.44 22.384,196 41.344,167.56 54.656,176.44 41.616,196 54.656,215.56 	"/>
	<polygon style="fill:#00BFC8;" points="86.656,224.44 73.344,215.56 86.384,196 73.344,176.44 86.656,167.56 105.616,196 	"/>
</g>
<rect x="144" y="140" style="fill:#FFFFFF;" width="328" height="112"/>
<g>
	<path style="fill:#E74C3C;" d="M192,212c-13.232,0-24-10.768-24-24s10.768-24,24-24s24,10.768,24,24S205.232,212,192,212z M192,180
		c-4.416,0-8,3.592-8,8s3.584,8,8,8s8-3.592,8-8S196.416,180,192,180z"/>
	
		<rect x="207.999" y="200.687" transform="matrix(-0.7071 0.7071 -0.7071 -0.7071 518.6398 209.1708)" style="fill:#E74C3C;" width="16" height="22.624"/>
</g>
<rect x="248" y="164" style="fill:#34495E;" width="16" height="64"/>
<g>
	<polygon style="fill:#FFFFFF;" points="328,364 304.04,284.896 376,324 344,332 	"/>
	
		<rect x="355.99" y="323.713" transform="matrix(-0.7071 0.7071 -0.7071 -0.7071 870.2668 343.5092)" style="fill:#FFFFFF;" width="16" height="56.559"/>
</g>
<g>
	<rect x="32" y="292" style="fill:#00BFC8;" width="16" height="16"/>
	<rect x="64" y="292" style="fill:#00BFC8;" width="16" height="16"/>
	<rect x="96" y="292" style="fill:#00BFC8;" width="16" height="16"/>
	<rect x="32" y="324" style="fill:#00BFC8;" width="16" height="16"/>
	<rect x="64" y="324" style="fill:#00BFC8;" width="16" height="16"/>
	<rect x="96" y="324" style="fill:#00BFC8;" width="16" height="16"/>
	<rect x="128" y="292" style="fill:#00BFC8;" width="16" height="16"/>
	<rect x="160" y="292" style="fill:#00BFC8;" width="16" height="16"/>
	<rect x="192" y="292" style="fill:#00BFC8;" width="16" height="16"/>
	<rect x="128" y="324" style="fill:#00BFC8;" width="16" height="16"/>
	<rect x="160" y="324" style="fill:#00BFC8;" width="16" height="16"/>
	<rect x="192" y="324" style="fill:#00BFC8;" width="16" height="16"/>
</g>
<g>
</g>
<g>
</g>
<g>
</g>
<g>
</g>
<g>
</g>
<g>
</g>
<g>
</g>
<g>
</g>
<g>
</g>
<g>
</g>
<g>
</g>
<g>
</g>
<g>
</g>
<g>
</g>
<g>
</g>
</svg>
