<svg version="1.1" id="Capa_1" xmlns="http://www.w3.org/2000/svg" xmlns:xlink="http://www.w3.org/1999/xlink" x="0px" y="0px"
	 viewBox="0 0 430.1 430.1" style="enable-background:new 0 0 430.1 430.1;" xml:space="preserve">
<style type="text/css">
	.st0{fill:#ffffff;}
</style>
<g>
	<path id="Twitter__x28_alt_x29_" class="st0" d="M381.4,198.6c24.2-2,40.5-13,46.9-27.9c-8.7,5.4-35.8,11.2-50.7,5.6
		c-0.7-3.5-1.5-6.8-2.4-9.9c-11.4-41.8-50.4-75.5-91.2-71.4c3.3-1.3,6.7-2.6,10-3.7c4.5-1.6,30.9-5.9,26.7-15.2
		c-3.5-8.2-35.7,6.2-41.8,8.1c8-3,21.3-8.2,22.7-17.4c-12.3,1.7-24.3,7.5-33.6,15.9c3.4-3.6,5.9-8,6.5-12.8
		C241.7,91,222.6,133.1,207.1,174c-12.1-11.8-22.9-21-32.6-26.2c-27.1-14.5-59.5-29.7-110.4-48.6c-1.6,16.8,8.3,39.2,36.8,54.1
		c-6.2-0.8-17.5,1-26.5,3.2c3.7,19.3,15.7,35.2,48.2,42.8c-14.8,1-22.5,4.4-29.5,11.6c6.8,13.4,23.3,29.2,53,25.9
		c-33,14.2-13.5,40.6,13.4,36.6c-45.8,47.3-118,43.8-159.5,4.3c108.3,147.6,343.7,87.3,378.8-54.9c26.3,0.2,41.7-9.1,51.3-19.4
		C415,206.1,393,203.5,381.4,198.6z"/>
</g>
</svg>
